<?xml version="1.0" encoding="utf-8"?>
<!-- Generator: Adobe Illustrator 22.0.1, SVG Export Plug-In . SVG Version: 6.00 Build 0)  -->
<svg version="1.1" id="Layer_1" xmlns="http://www.w3.org/2000/svg" xmlns:xlink="http://www.w3.org/1999/xlink" x="0px" y="0px"
	 viewBox="0 0 1600 242" style="enable-background:new 0 0 1600 242;" xml:space="preserve">
<style type="text/css">
	.st0{fill:#7ACCDD;}
	.st1{fill:#4DD0E2;}
</style>
<g>
	<path class="st0" d="M358.3,186.8c-12.4-14.1-18.6-32.6-18.6-55.4c0-22.9,6.2-41.5,18.6-55.6C370.7,61.8,387,54.7,407,54.7
		c20.2,0,36.5,7,48.9,21.1c12.4,14.1,18.6,32.6,18.6,55.6c0,22.9-6.2,41.3-18.6,55.4C443.6,200.9,427.3,208,407,208
		C387,208,370.7,200.9,358.3,186.8z M437.6,171.9c7.6-10,11.4-23.5,11.4-40.5c0-17-3.8-30.5-11.4-40.6
		c-7.6-10.1-17.8-15.1-30.6-15.1c-12.8,0-23,5-30.6,15.1c-7.5,10.1-11.3,23.6-11.3,40.6c0,17,3.8,30.5,11.3,40.5
		c7.5,10,17.7,15,30.6,15C419.8,187,430.1,182,437.6,171.9z"/>
	<path class="st0" d="M486.4,59.1h14.3h14.3l38.9,118.7h-0.1L594,59.1h13.4h13.5l-54.1,145h-13h-13.1L486.4,59.1z"/>
	<path class="st0" d="M700.1,208c-20.5,0-36.6-6.5-48.4-19.5c-11.7-13-17.6-31-17.6-53.9c0-24.4,6.2-43.8,18.6-58.2
		c12.4-14.4,29.1-21.6,50.1-21.6c19,0,34.3,7,45.9,21.1c11.7,14.1,17.5,32.6,17.5,55.6l-0.3,8.7H660.1c1,14.5,4.3,25.5,9.9,33.1
		c6.9,9.2,17.7,13.8,32.5,13.8c9.3,0,17.4-2.6,24.4-7.9c7-5.2,11.2-11.9,12.7-20.1h24.1c-3.6,15.9-10.8,28-21.7,36.4
		C731.2,203.8,717.2,208,700.1,208z M740.8,120.4c-0.7-13.5-4.1-23.9-10-31.4c-6.6-8.3-16.3-12.5-29-12.5
		c-12.8,0-23.1,4.8-30.8,14.4c-6.1,7.5-9.7,17.3-11,29.5H740.8z"/>
	<path class="st0" d="M795.4,59.1h11.5h11.7v21.4l5.4-7.2c10.6-12.4,23.8-18.6,39.7-18.6c16,0,28.3,4.3,37,13c8.7,8.7,13,21,13,37
		v99.3h-12.2h-12.2V113c0-12.7-2.5-21.9-7.4-27.6c-4.9-5.6-12.9-8.5-23.9-8.5c-11.7,0-21.1,4.5-27.9,13.3s-10.3,20.9-10.3,36.1v77.6
		h-12.2h-12.2V59.1z"/>
	<path class="st0" d="M1003,203.9c-8.3,1.3-14.4,1.9-18.2,1.9c-10.7,0-18.2-2.3-22.6-7c-4.4-4.7-6.6-12.8-6.6-24.3V79h-20.1V59.1
		h20.1V18.4h24.4v40.7h22.9V79h-22.9v95.5c0,3.3,1.3,5.8,3.9,7.7c2.6,1.9,6,2.8,10.4,2.8h8.7V203.9z"/>
	<path class="st0" d="M1052.1,152.6c0,12.2,2.3,21,7,26.4c4.7,5.4,12.3,8.1,22.9,8.1c11.7,0,21-4.5,27.9-13.6
		c6.9-9.1,10.3-21.4,10.3-36.9V59.1h12.2h12.2v145h-11.5h-11.7V182c-1.6,2.6-3.4,5.1-5.4,7.5c-10.4,12.4-23.4,18.6-39,18.6
		c-16.4,0-28.8-4.1-37-12.3c-8.2-8.2-12.3-20.6-12.3-37V59.1h12.2h12.2V152.6z"/>
	<path class="st0" d="M1184.6,59.1h11.5h11.7v24.8c2.1-3.9,4.3-7.4,6.6-10.6c9.2-12.4,20.6-18.6,34-18.6c2.3,0,4.6,0.4,6.9,1.2v24.9
		l-5-0.1c-13.2,0-23.4,4-30.6,11.9c-7.2,7.9-10.8,19.2-10.8,33.8v77.6h-12.2h-12.2V59.1z"/>
	<path class="st0" d="M1332.7,208c-20.5,0-36.6-6.5-48.4-19.5c-11.7-13-17.6-31-17.6-53.9c0-24.4,6.2-43.8,18.6-58.2
		c12.4-14.4,29.1-21.6,50.1-21.6c19,0,34.3,7,45.9,21.1c11.7,14.1,17.5,32.6,17.5,55.6l-0.3,8.7h-105.9c1,14.5,4.3,25.5,9.9,33.1
		c6.9,9.2,17.7,13.8,32.5,13.8c9.3,0,17.4-2.6,24.4-7.9c7-5.2,11.2-11.9,12.7-20.1h24.1c-3.6,15.9-10.8,28-21.7,36.4
		C1363.7,203.8,1349.8,208,1332.7,208z M1373.4,120.4c-0.7-13.5-4.1-23.9-10-31.4c-6.6-8.3-16.3-12.5-29-12.5
		c-12.8,0-23.1,4.8-30.8,14.4c-6.1,7.5-9.7,17.3-11,29.5H1373.4z"/>
	<g>
		<path class="st0" d="M1504.3,121.9l-12.2-2.9c0.1,3.1,0.1,6.3,0.2,9.4c1.8-0.4,3.8-0.3,5.6,0.3c3.6,1.1,6.1,3.7,7.1,6.8
			c2.5,1.2,4.4,2.8,5.6,4.7c2.4,1.1,4.1,3.1,4.9,5.7c0.6,2.1,0.5,4.3-0.2,6.4c0.6,0.6,1.2,1.2,1.6,1.9l12.4-22.2
			C1523.4,127.9,1515,124.5,1504.3,121.9z"/>
		<path class="st0" d="M1494.4,191.2c0.4,0.3,2,0.4,5.1-1.1c14.3-6.4,23.2-15.9,27.1-29.1h-7.2c0,0.5,0.1,1,0.1,1.5
			c0,8-2.8,14-8.5,18.2c-4.3,3.2-10.2,5.1-17.7,5.9C1493.4,189.7,1494,191,1494.4,191.2z"/>
		<path class="st0" d="M1435.5,165.5c3.9,9.1,10.1,16.2,18.4,21.1c0.2-0.1,0.4-0.2,0.6-0.4c0-0.3,0-0.5,0-0.8c0.3-2.2,1.4-4.2,3-5.9
			c-5.7-4.6-9.2-11.9-10.3-21.9h-1.6l1.7,3.2h-13.4C1434.4,162.6,1434.9,164.1,1435.5,165.5z"/>
		<path class="st0" d="M1493.2,70.9c-0.8,0.5-1.3,1-1.6,1.3c3.3,0.9,4.6,2.3,5.1,5.5c3.5,1.1,6.6,2.6,9.3,4.7
			c5.8,4.4,9.1,10.7,9.8,18.7h22.9c-0.6-14.5-5.9-25.8-15.9-34c-5.7-4.7-12.6-8-20.6-10C1501.3,62.6,1498.1,67.6,1493.2,70.9z"/>
		<path class="st0" d="M1466.3,137.2l1.8,0.4c0.1-3,0.1-6.1,0.2-9.1l0-0.1c-0.4-0.4-0.9-0.8-1.3-1.2c-0.3,0-0.7,0.1-1,0.1
			c-1.1,0-2.3-0.2-3.4-0.6c-2.3-0.9-4.3-2.6-5.6-4.9c-1.3-2.3-1.8-4.9-1.4-7.3c0.2-1.1,0.5-2,1-2.9c-2.6-1.3-4.7-4-5.2-7.5
			c-0.2-1.6-0.1-3.2,0.3-4.6c-0.2-1-0.3-2-0.3-3.2c0-1.2,0.1-2.3,0.3-3.3c-0.4-0.7-0.7-1.4-1-2.2c-0.7-2.4-0.5-5,0.5-7.4
			c0.9-2.1,2.4-3.8,4.2-5c-0.5-1-0.8-2-1-3.2c-0.3-2.5,0.4-5,1.8-7.2c1.2-1.8,2.9-3.2,4.7-4.1c-1-1.8-1.8-3.8-2.3-5.8
			c-6,2-11.3,4.8-15.8,8.5c-9.7,8-14.6,18.8-14.6,32.5c0,10.5,2.9,18.6,8.7,24.4C1443,129.4,1452.7,134,1466.3,137.2z"/>
	</g>
	<path class="st1" d="M1539.1,122.3c-6.7,11.9-13,23.2-19.7,35.2c4.4,0,7.9,0,11.8,0c-0.4,1.6-0.6,3-0.9,4.3
		c-4.4,15.5-14.8,25.4-29.2,31.8c-8.3,3.7-11.3,0.5-11.4-7.3c-0.2-24.1-0.8-48.2-1.3-72.2c0-0.7,0.1-1.5,0.2-2.5
		c4.4,0.5,4.8-2.2,4.6-5.5c-0.1-1.5-0.1-3,0-4.5c0.3-3.6-0.4-6.3-4.9-5.9c0-1.6,0-2.9,0-4.1c5-0.6,5.1-0.7,5.1-5.6
		c0-1.4,0-2.8,0-4.1c0-5.6,0-5.6-5.2-6.5c-1.1-3.3,0.1-5.3,3.1-7.3c6.8-4.5,9.3-12.9,6.8-20.6c-2.5-7.7-9.6-12.7-18.1-12.6
		c-7.6,0-14.7,5.6-17.2,13.4c-2.3,7.2,0.4,15.7,7,19.9c3.3,2.1,3.6,4.3,2.8,7.5c-4.1-0.4-5.6,1.5-5.2,5.3c0.2,1.5,0.1,3,0,4.5
		c-0.3,3.8,0.3,6.6,5.1,6c0,1.6,0,2.9,0,4.5c-4.4-0.7-5.2,1.7-5,5.1c0.1,1.9,0.2,3.8,0,5.6c-0.3,3.3,1,5,4.5,5
		c0.2,0.7,0.3,0.9,0.3,1.1c-0.5,25.5-0.9,50.9-1.5,76.4c-0.1,5.1-3.1,7.2-8.2,5.5c-14.1-4.8-24.5-13.8-30.5-27.7
		c-1.3-2.9-1.9-6.1-3-9.7c4.3,0,7.9,0,12,0c-6.6-11.8-12.8-23.1-19.4-34.9c-6.6,11.8-13,23.2-19.8,35.3c4.4,0,7.7,0,11,0
		c4.7,25.1,19.6,42.6,43.4,51.3c6.7,2.4,12.8,5.8,17.6,11.2c2,2.2,3.9,4.5,5.9,6.9c1.8-1.7,2.9-2.6,3.8-3.6
		c6.5-7.2,14.2-12.2,23.5-15.6c13.9-5.1,25.3-14,32.5-27.2c3.9-7.1,6.4-15.1,9.9-23.4c2.2,0,5.5,0,9.5,0
		C1552.2,145.4,1545.9,134.2,1539.1,122.3z M1480.3,65.6c-7.1,0-12.8-5.7-12.8-12.8s5.7-12.8,12.8-12.8s12.8,5.7,12.8,12.8
		S1487.4,65.6,1480.3,65.6z"/>
	<path class="st1" d="M1484.8,39.4c-0.3,0.3-1.8,2-4,4.8c0.6,0.1,1.2,0.2,1.7,0.4c0.5,0.1,0.6,0.7,0.3,1c0.1,0.1,0.3,0.2,0.4,0.4
		c2.2-2.8,3.6-4.4,3.7-4.5L1484.8,39.4z"/>
	<path class="st1" d="M1467,68.4c0.5,0.3,1.1,0.8,1.5,1.3c0.4-0.9,0.8-1.7,1.3-2.6c-1-0.4-2.3-0.4-3-1.1c-0.3,0.6-0.6,1.3-1,1.9
		C1466.2,68,1466.6,68.2,1467,68.4z"/>
	<path class="st1" d="M1463.4,83c0.4-1.5,0.9-2.9,1.4-4.4c-1.1,0.1-2.3-0.1-3.2-0.7c-0.5,1.3-0.9,2.7-1.3,4
		C1461.5,82,1462.7,82.2,1463.4,83z"/>
	<path class="st1" d="M1461.1,97.9c0-2,0.1-3.9,0.4-5.9c-0.9,0.2-2.2,0.7-3.3,0.6c-0.2,1.8-0.3,3.6-0.2,5.4
		C1459,97.5,1460.2,97.5,1461.1,97.9z"/>
	<path class="st1" d="M1464,111.8c-0.6-1.3-1.1-2.7-1.5-4.1c-0.9,0.5-1.9,0.9-2.9,0.9c0.5,1.7,1.1,3.4,1.9,5
		C1462.2,112.8,1463.1,111.8,1464,111.8z"/>
	<path class="st1" d="M1505.5,144.4c0.9-0.4,2.2-0.3,3.2-0.2c-0.9-3-3.7-5.2-8.2-6.7c0.2,1.1,0,2.2-0.6,3
		C1502.8,141.5,1504.7,142.8,1505.5,144.4z"/>
	<path class="st1" d="M1502.9,159.7c1.4-1.5,1.8-3.1,2.8-4.5c-0.9-0.4-1.9-0.7-2.8-1.2c-0.8,1.1-1.8,2.2-2.8,3.4
		C1501.1,157.8,1502.4,158.8,1502.9,159.7z"/>
	<path class="st1" d="M1469.9,184.7c8-5.1,17.2-11.4,24.7-17.8c-0.8-0.6-1.5-1.4-2.1-2.2c-7,5.9-15.7,12-23.9,17.2
		C1469.3,182.6,1469.7,183.7,1469.9,184.7z"/>
	<path class="st1" d="M1459.2,187.7c-3.3,2-6.2,3.6-8.6,5l1.5,2.6c1.3-0.7,4.7-2.6,9.2-5.3C1460.3,189.4,1459.4,188.6,1459.2,187.7z
		"/>
	<path class="st1" d="M1489.8,137.1c0-0.3,0-0.6,0.1-1c0.1-0.6,0.8-1.2,0.7-1.7c0-0.1,0-0.1,0-0.2c-9.2-3.6-16.2-8.3-21.2-13.9
		c-0.2,0.9-0.8,1.6-1.6,2c-0.2,0.1-0.4,0.1-0.6,0.1C1472.6,128.3,1480.1,133.3,1489.8,137.1z"/>
	<path class="st1" d="M1474.9,58.1c0.6-0.9,1.1-1.8,1.7-2.6c-1-0.5-1.8-1.5-2.1-2.5c-0.6,0.9-1.3,1.9-1.9,2.9
		C1473.5,56.3,1474.3,57.2,1474.9,58.1z"/>
	<path class="st1" d="M1478.2,56.3c-1,0-1.9-0.3-2.7-0.8c-1.3-0.8-2.1-2.2-2.3-3.9c-0.2-1.6,0.3-3.3,1.2-4.8c1-1.5,2.4-2.6,3.9-3.1
		c1.6-0.5,3.2-0.3,4.5,0.5c1.3,0.8,2.1,2.2,2.3,3.9c0.2,1.6-0.3,3.3-1.2,4.8c-1,1.5-2.4,2.6-3.9,3.1
		C1479.4,56.2,1478.8,56.3,1478.2,56.3z M1480.2,44.9c-0.4,0-0.9,0.1-1.3,0.2c-1.2,0.4-2.3,1.3-3.1,2.5c-0.8,1.2-1.1,2.6-1,3.9
		c0.1,1.2,0.7,2.2,1.6,2.8c0.9,0.6,2,0.7,3.2,0.3c1.2-0.4,2.3-1.3,3.1-2.5c0.8-1.2,1.1-2.6,1-3.9c-0.1-1.2-0.7-2.2-1.6-2.8
		C1481.5,45.1,1480.8,44.9,1480.2,44.9z"/>
	<path class="st1" d="M1469.9,67.6c-1,0-1.9-0.3-2.7-0.8c-1.3-0.8-2.1-2.2-2.3-3.9c-0.2-1.6,0.3-3.3,1.2-4.8c1-1.5,2.4-2.6,3.9-3.1
		c1.6-0.5,3.2-0.3,4.5,0.5c1.3,0.8,2.1,2.2,2.3,3.9c0.2,1.6-0.3,3.3-1.2,4.8c-1,1.5-2.4,2.6-3.9,3.1
		C1471.1,67.5,1470.5,67.6,1469.9,67.6z M1471.9,56.2c-0.4,0-0.9,0.1-1.3,0.2c-1.2,0.4-2.3,1.3-3.1,2.5c-0.8,1.2-1.1,2.6-1,3.9
		c0.1,1.2,0.7,2.2,1.6,2.8c0.9,0.6,2,0.7,3.2,0.3c1.2-0.4,2.3-1.3,3.1-2.5c0.8-1.2,1.1-2.6,1-3.9c-0.1-1.2-0.7-2.2-1.6-2.8
		C1473.2,56.3,1472.6,56.2,1471.9,56.2z"/>
	<path class="st1" d="M1463.1,79.6c-1,0-1.9-0.3-2.7-0.8c-1.3-0.8-2.1-2.2-2.3-3.9c-0.2-1.6,0.3-3.3,1.2-4.8c1-1.5,2.4-2.6,3.9-3.1
		c1.6-0.5,3.2-0.3,4.5,0.5c1.3,0.8,2.1,2.2,2.3,3.9c0.2,1.6-0.3,3.3-1.2,4.8c-1,1.5-2.4,2.6-3.9,3.1
		C1464.3,79.5,1463.7,79.6,1463.1,79.6z M1465.1,68.2c-0.4,0-0.9,0.1-1.3,0.2c-1.2,0.4-2.3,1.3-3.1,2.5c-0.8,1.2-1.1,2.6-1,3.9
		c0.1,1.2,0.7,2.2,1.6,2.8c0.9,0.6,2,0.7,3.2,0.3c1.2-0.4,2.3-1.3,3.1-2.5c0.8-1.2,1.1-2.6,1-3.9c-0.1-1.2-0.7-2.2-1.6-2.8
		C1466.4,68.4,1465.8,68.2,1465.1,68.2z"/>
	<path class="st1" d="M1459.1,93.8c-0.6,0-1.3-0.1-1.9-0.4c-1.4-0.6-2.4-1.8-2.9-3.5c-0.4-1.6-0.3-3.3,0.4-5c0.7-1.6,1.9-3,3.3-3.7
		c1.5-0.8,3.1-0.9,4.5-0.3c2.9,1.2,4,5,2.5,8.5l0,0C1463.9,92.1,1461.5,93.8,1459.1,93.8z M1460.6,82.1c-0.6,0-1.3,0.2-1.9,0.5
		c-1.1,0.6-2.1,1.7-2.7,3c-0.6,1.3-0.7,2.7-0.3,4c0.3,1.2,1.1,2.1,2.1,2.5c2.1,0.9,4.7-0.5,5.9-3.2l0,0c1.1-2.7,0.4-5.6-1.7-6.5
		C1461.5,82.1,1461.1,82.1,1460.6,82.1z"/>
	<path class="st1" d="M1460.3,109.8c-1.1,0-2.3-0.4-3.3-1.2c-1.3-1-2.3-2.5-2.8-4.3c-0.9-3.7,0.8-7.4,3.9-8.1c1.5-0.4,3.2,0,4.6,1
		c1.3,1,2.3,2.5,2.8,4.3l0,0c0.9,3.7-0.8,7.4-3.9,8.1C1461.2,109.8,1460.7,109.8,1460.3,109.8z M1459.4,97.9c-0.3,0-0.5,0-0.8,0.1
		c-2.1,0.5-3.3,3.2-2.6,5.9c0.3,1.4,1.1,2.5,2.1,3.3c1,0.7,2,1,3,0.7c2.1-0.5,3.3-3.2,2.6-5.9c-0.3-1.4-1.1-2.5-2.1-3.3
		C1460.9,98.2,1460.1,97.9,1459.4,97.9z"/>
	<path class="st1" d="M1466.1,123.8c-0.7,0-1.4-0.1-2.1-0.4c-1.5-0.6-2.9-1.8-3.8-3.3c-0.9-1.5-1.2-3.3-1-4.9c0.3-1.7,1.1-3,2.5-3.8
		c2.7-1.6,6.4-0.2,8.3,3l0,0c1.9,3.2,1.2,7.1-1.5,8.7C1467.8,123.6,1466.9,123.8,1466.1,123.8z M1464.2,112.3
		c-0.6,0-1.2,0.1-1.7,0.4c-0.9,0.5-1.6,1.5-1.7,2.7c-0.2,1.3,0.1,2.7,0.8,3.9c0.7,1.2,1.8,2.2,3,2.6c1.2,0.4,2.3,0.4,3.2-0.2
		c2-1.1,2.4-4.1,1-6.6C1467.6,113.4,1465.9,112.3,1464.2,112.3z"/>
	<path class="st1" d="M1495.9,143.4c-0.8,0-1.6-0.1-2.3-0.4c-3.6-1.1-5.7-4.4-4.8-7.4c0.9-3,4.6-4.5,8.1-3.4h0
		c3.6,1.1,5.7,4.4,4.8,7.4c-0.4,1.5-1.6,2.6-3.1,3.3C1497.7,143.2,1496.8,143.4,1495.9,143.4z M1494.5,133.3c-2.1,0-3.8,1-4.3,2.7
		c-0.7,2.2,1.1,4.6,3.8,5.5c1.4,0.4,2.8,0.4,4-0.1c1.1-0.5,1.9-1.3,2.3-2.3c0.7-2.2-1.1-4.6-3.8-5.5
		C1495.8,133.4,1495.2,133.3,1494.5,133.3z"/>
	<path class="st1" d="M1505.8,156.3c-0.7,0-1.3-0.1-1.9-0.4c-1.4-0.6-2.5-1.8-2.9-3.5c-0.5-1.6-0.3-3.3,0.4-5c0.7-1.6,1.9-3,3.3-3.7
		c1.5-0.8,3.1-0.9,4.5-0.3c1.4,0.6,2.5,1.8,2.9,3.5c0.5,1.6,0.3,3.3-0.4,5c-0.7,1.6-1.9,3-3.3,3.7
		C1507.5,156,1506.6,156.3,1505.8,156.3z M1507.3,144.5c-0.6,0-1.3,0.2-1.9,0.5c-1.1,0.6-2.1,1.7-2.6,3c-0.6,1.3-0.7,2.7-0.3,4
		c0.3,1.2,1.1,2.1,2.1,2.5c1,0.4,2.1,0.3,3.2-0.2c1.1-0.6,2.1-1.7,2.6-3c0.6-1.3,0.7-2.7,0.3-4c-0.3-1.2-1.1-2.1-2.1-2.5
		C1508.2,144.6,1507.7,144.5,1507.3,144.5z"/>
	<path class="st1" d="M1497.1,168.6c-1.5,0-2.9-0.6-3.9-1.6c-1-1.1-1.5-2.7-1.2-4.4c0.2-1.6,1.1-3.2,2.4-4.4
		c2.8-2.5,6.7-2.7,8.8-0.4c2.1,2.3,1.6,6.2-1.2,8.7l0,0c-1.3,1.2-2.9,1.9-4.6,2C1497.3,168.6,1497.2,168.6,1497.1,168.6z
		 M1499.4,157.8c-1.3,0-2.7,0.6-3.9,1.6c-1.1,1-1.8,2.2-1.9,3.5c-0.2,1.2,0.1,2.3,0.8,3.1c1.5,1.7,4.5,1.5,6.7-0.5l0,0
		c2.1-2,2.6-4.9,1.1-6.6C1501.4,158.1,1500.4,157.8,1499.4,157.8z"/>
	<path class="st1" d="M1463.2,192c-1.5,0-2.9-0.6-3.9-1.6c-1-1.1-1.5-2.7-1.2-4.4c0.2-1.6,1.1-3.2,2.4-4.4c2.8-2.5,6.7-2.7,8.8-0.4
		c2.1,2.3,1.6,6.2-1.2,8.7l0,0c-1.3,1.2-2.9,1.9-4.6,2C1463.5,192,1463.4,192,1463.2,192z M1465.5,181.1c-1.3,0-2.7,0.6-3.9,1.6
		c-1.1,1-1.8,2.2-1.9,3.5c-0.2,1.2,0.1,2.3,0.8,3.1c1.5,1.7,4.5,1.5,6.7-0.5l0,0c2.1-2,2.6-4.9,1.1-6.6
		C1467.6,181.5,1466.6,181.1,1465.5,181.1z"/>
	<g>
		<path class="st0" d="M48.9,106.1c6.5-3.3,13.3-5.8,20.5-7.3c6.8-1.4,13.7-2,20.6-1.3c7.1,0.6,14,2.4,20.3,5.8
			c6.9,3.7,12.7,8.9,16.9,15.6c4,6.3,6.7,13,6.6,20.6c-0.1,5.4-1.5,10.1-4.1,14.1c-0.1,0.4-0.1,0.8-0.2,1.1c0,0.4-0.3,0.9,0.1,1.2
			c0.4,0.3,0.8-0.2,1.1-0.4c7.3-5.3,10.9-12.4,11.1-21.4c0.1-7.7-2.6-14.3-6.6-20.6c-4.2-6.7-10-11.8-16.9-15.6
			c-6.3-3.4-13.1-5.1-20.3-5.8c-7-0.6-13.8,0-20.6,1.3c-7.2,1.4-14,3.9-20.5,7.3c-4.7,2.4-9.1,5.2-13.2,8.2
			C45.5,108,47.2,107,48.9,106.1z"/>
		<path class="st0" d="M42.3,167c0-0.7-0.1-1.5-0.1-2.2c0-0.1-0.1-0.1-0.2-0.3c-0.6,2.4-0.8,4.9-0.9,7.3c-0.3,8.7,0.3,17.3,3.5,25.5
			c2.4,6.3,6.2,11.6,11.3,16c6.3,5.4,13.7,8.3,21.7,10c2.6,0.5,5.2,1,7.9,1.1c-2.8-0.9-5.7-1.4-8.6-2.4c-8-2.7-15-7-20.6-13.3
			c-4.9-5.3-8.2-11.5-10.4-18.4C43.5,182.7,42.4,175,42.3,167z"/>
		<path class="st0" d="M250.7,165c-8.1-6.3-17.5-7.4-27.3-6.5c-6.2,0.6-12.1,2.5-17.9,5c-11.1,4.6-21.5,10.5-31.9,16.4
			c-11.4,6.4-22.6,13.1-34.3,18.8c-5.8,2.8-11.6,5.4-17.7,7.7c-6.2,2.3-12.5,4.1-18.9,4.9c-9.4,1.1-18.5-0.1-26.3-6
			c-6.6-5.1-11.6-11.5-14.8-19.3c-3.6-8.8-4.2-17.8-1.9-26.9c1.7-6.7,4.9-12.8,9.2-18.2c2.1-2.6,4.5-4.9,7-7
			c-5.8,3.1-10.8,7.1-15,12.4c-4.3,5.4-7.5,11.5-9.2,18.2c-0.4,1.5-0.6,2.9-0.9,4.3c0.5,5.5,1.5,10.9,3.2,16.2
			c2.2,6.9,5.5,13.1,10.4,18.4C70,209.6,77,213.9,85,216.7c0.3,0.1,0.5,0.2,0.8,0.2c2.9,0.2,5.8,0.1,8.8-0.3
			c6.5-0.8,12.8-2.5,18.9-4.9c6-2.3,11.9-4.9,17.7-7.7c11.7-5.7,22.9-12.4,34.3-18.8c10.4-5.9,20.9-11.8,31.9-16.4
			c5.8-2.4,11.7-4.4,17.9-5c9.4-0.9,18.5,0.2,26.4,5.9c1,0.4,1.9,0.8,2.9,1.3c4.4,2.2,7.5,5.7,8.9,10.8c1.4,5.2,1,10.2-0.5,15.3
			c-0.1,0.3-0.3,0.6,0.1,1c0.9-1.1,1.7-2.3,2.3-3.7c1.9-4.6,3.3-9.2,3.4-14.3C258.8,173.6,255.6,168.8,250.7,165z"/>
		<path class="st0" d="M192.3,190.4c-5,4.2-9.7,8.8-14.6,13.2c-6.4,5.7-12.8,11.5-19.2,17.2c-5.2,4.6-10.5,9-16.1,13.1
			c-1,0.7-2,1.4-3,2.1c3.8-2.4,7.5-4.9,11.1-7.5c5.6-4,10.9-8.5,16.1-13.1c6.4-5.7,12.8-11.5,19.2-17.2c4.9-4.4,9.5-9,14.6-13.2
			c2.9-2.4,5.9-4.9,8.9-7.1C203.2,181.5,197.7,185.9,192.3,190.4z"/>
	</g>
	<path class="st0" d="M168.7,231.2c5.3-7.8,11.1-15.1,17.2-22.3c6.2-7.1,12.8-13.9,20.2-20c3.8-3,7.7-5.9,12.2-8.3
		c4.5-2.3,10-4.1,16.1-2.5c1.5,0.3,2.9,1.2,4.2,1.8c1.2,1,2.5,1.8,3.4,2.9c1.9,2.2,3.2,4.6,4,7.1c1.7,4.9,1.7,9.9,1.3,14.6l-0.8,0.1
		c-1.9-4.4-3.3-8.8-5.7-12.4c-1.2-1.7-2.4-3.3-3.8-4.4c-0.7-0.6-1.5-0.9-2.1-1.4c-0.8-0.2-1.5-0.6-2.3-0.6c-3.2-0.5-7.1,0.5-11,2
		c-4,1.5-7.9,3.7-11.6,6.2c-7.5,5.1-14.5,11.2-21.1,17.6c-6.8,6.3-13.2,13.1-19.4,20L168.7,231.2z"/>
	<path class="st0" d="M126.8,161.6c-3.7-6.1-8.2-11.7-13.6-16.3c-2.7-2.3-5.6-4.2-8.8-5.4c-3.2-1.3-6.6-1.6-9.9-0.9
		c-6.5,1.6-11.4,7.1-15.2,12.8c-1.8,3-3.7,6-4.7,9.1c-1.1,3.2-1.7,6.6-1.9,10c-0.5,6.8,0.6,13.8,4.2,19.2c1.7,2.7,4.1,4.8,6.9,6.4
		c2.8,1.6,6,2.4,9.3,2.9c6.7,0.9,13.7-0.1,20.5-1.6c6.9-1.5,13.6-3.7,20.4-6.1l0.2,0.4c-6.3,3.5-12.9,6.5-19.8,8.7
		c-6.9,2.2-14.2,3.7-21.8,3.1c-3.8-0.3-7.6-1.3-11.1-3.2c-3.5-1.8-6.5-4.7-8.6-8.1c-4.2-6.8-4.8-14.8-4.1-22.1
		c0.4-3.7,1.2-7.4,2.5-10.9c0.6-1.7,1.5-3.6,2.5-5.1c0.9-1.6,1.9-3.1,2.9-4.6c2.1-3,4.5-5.9,7.3-8.3c2.8-2.4,6.2-4.4,10-5.1
		c3.8-0.7,7.7-0.1,11.1,1.4c3.4,1.5,6.4,3.7,9.1,6.2c5.3,5,9.5,10.9,13,17.2L126.8,161.6z"/>
	<path class="st0" d="M154,6h13.3h78.5c20.9,0,36.9,4.5,47.8,13.6C304.6,28.7,310,42,310,59.6c0,17.3-5.7,30.8-17.1,40.5
		c-2.9,2.4-6,4.6-9.3,6.4l4.4,2.1c12,6.9,18.2,18.5,18.7,34.8l1.1,36c0.2,5.9,0.9,10.2,2.3,12.8c1.3,2.6,3.9,4.8,7.8,6.7v4.3h-32.8
		c-0.7-1.6-1.4-5.8-2.1-12.6c-0.7-6.8-1.3-14.4-1.6-22.7l-0.6-15.6c-0.4-12.3-3.4-21-9-26.2c-5.6-5.2-14.9-7.9-27.6-7.9h-63.4v85.1
		h-13.3H154V6z M180.8,95.1h66.1c12.4,0,21.4-2.7,27.1-8.1c5.7-5.4,8.6-14,8.6-25.7c0-11.4-3-19.7-9.1-25c-6-5.3-15.6-7.9-28.7-7.9
		h-64V95.1z"/>
</g>
</svg>
